# xmcd
# Copyright (c) 1998 CDDB Inc.
#
# Track frame offsets:
#	150
#	11742
#	27685
#	43417
#	57335
#	69891
#	86598
#	103115
#	116084
#	134472
#	145833
#	161831
#
# Disc length: 2379 seconds
#
# Revision: 2
# Processed by: cddbd v1.4PL0 Copyright (c) Steve Scherf et al.
# Submitted via: audiograbber 1.70
#
DISCID=b109490c
DTITLE=Patrick Murphy - The Rest of Forever
DYEAR=2002
DGENRE=Country
TTITLE0=Girls Like Her, Men Like Me
TTITLE1=The Rest of Forever
TTITLE2=Drivin' My Life Away
TTITLE3='Till You Love Me Again
TTITLE4=Heaven on Earth
TTITLE5=Memories of You
TTITLE6=Thing To Do
TTITLE7=Strong Weakness
TTITLE8=You
TTITLE9=Texas Music
TTITLE10=Don't Call Me
TTITLE11=Don't Call Me (The Original)
EXTD=
EXTT0=
EXTT1=
EXTT2=
EXTT3=
EXTT4=
EXTT5=
EXTT6=
EXTT7=
EXTT8=
EXTT9=
EXTT10=
EXTT11=
PLAYORDER=
